{"title":"Pitch Perfect 2 2015 DVD9rip English Klam","uid":12200729,"size":2153585759,"categoryP":"video","categoryS":"movies","magnet":"?xt=urn:btih:88f06707694bc2d35eb56262695ae0ce2c604840&amp;dn=Pitch+Perfect+2+2015+DVD9rip+English+Klam&amp;tr=udp%3A%2F%2Ftracker.openbittorrent.com%3A80&amp;tr=udp%3A%2F%2Fopen.demonii.com%3A1337&amp;tr=udp%3A%2F%2Ftracker.coppersurfer.tk%3A6969&amp;tr=udp%3A%2F%2Fexodus.desync.com%3A6969","seeders":2,"leechers":0,"uploader":"Klambake","files":5,"time":1438823086,"description":" &lt;a href=&quot;http://i.imgur.com/QKmzBeb.jpg&quot; rel=&quot;nofollow&quot; target=&quot;_NEW&quot;&gt;http://i.imgur.com/QKmzBeb.jpg&lt;/a&gt;\n\nWith: Elizabeth Banks, Anna Kendrick and Hailee Steinfeld\n\nDe Bellas zijn afgestudeerd. Ze naderen het einde van hun studentenbestaan en daarmee ook hun tijd als zangeressen in hun zanggroep Barden Bellas. Ze proberen er achter te komen hoe ze hun vriendschap soort van af kunnen sluiten en wat ze gaan doen met de rest van hun leven.\n\nAfter a humiliating command performance at Lincoln Center, the Barden Bellas enter an international competition that no American group has ever won in order to regain their status and right to perform.\n &lt;a href=&quot;\nhttp://www.imdb.com/title/tt2848292&quot; rel=&quot;nofollow&quot; target=&quot;_NEW&quot;&gt;\nhttp://www.imdb.com/title/tt2848292&lt;/a&gt;\n\n--------------------- Dutch Friends 4ever ---------------------\n---------------------------------------------------------------\n- Bezoek ook eens mijn vrienden op: &lt;a href=&quot; http://www.Film-Test.nl&quot; rel=&quot;nofollow&quot; target=&quot;_NEW&quot;&gt; http://www.Film-Test.nl&lt;/a&gt; --\n----- voor mijn Nederlandse Sync. ondertitels ---- en meer ----\n------- http://www.Film-Test.nl ---- Over Films en meer -------\n---------------------------------------------------------------\n &lt;a href=&quot;\nhttp://i.imgur.com/1DOKyAr.jpg&quot; rel=&quot;nofollow&quot; target=&quot;_NEW&quot;&gt;\nhttp://i.imgur.com/1DOKyAr.jpg&lt;/a&gt; &lt;a href=&quot;\nhttp://i.imgur.com/LzbKbh7.jpg&quot; rel=&quot;nofollow&quot; target=&quot;_NEW&quot;&gt;\nhttp://i.imgur.com/LzbKbh7.jpg&lt;/a&gt; &lt;a href=&quot;\nhttp://i.imgur.com/7LmnXV7.jpg&quot; rel=&quot;nofollow&quot; target=&quot;_NEW&quot;&gt;\nhttp://i.imgur.com/7LmnXV7.jpg&lt;/a&gt;\n\nGeneral:\n\nComplete name                            : Pitch Perfect 2Pitch Perfect 2.avi\nFormat                                   : AVI\nFormat/Info                              : Audio Video Interleave\nFile size                                : 2.01 GiB\nDuration                                 : 1h 54mn\nOverall bit rate                         : 2 502 Kbps\n\nVideo:\n\nFormat                                   : MPEG-4 Visual\nFormat profile                           : Simple@L3\nFormat settings, BVOP                    : No\nFormat settings, QPel                    : No\nFormat settings, GMC                     : No warppoints\nFormat settings, Matrix                  : Default (H.263)\nCodec ID                                 : XVID\nCodec ID/Hint                            : XviD\nDuration                                 : 1h 54mn\nBit rate                                 : 2 043 Kbps\nWidth                                    : 652 pixels\nHeight                                   : 352 pixels\nDisplay aspect ratio                     : 1.85:1\nFrame rate                               : 25.000 fps\nColor space                              : YUV\nChroma subsampling                       : 4:2:0\nBit depth                                : 8 bits\nScan type                                : Progressive\nCompression mode                         : Lossy\nBits/(Pixel*Frame)                       : 0.356\nStream size                              : 1.64 GiB (82%)\nWriting library                          : XviD 1.1.2 (UTC 2006-11-01)\n\nAudio:\n\nFormat                                   : AC-3\nFormat/Info                              : Audio Coding 3\nMode extension                           : CM (complete main)\nFormat settings, Endianness              : Big\nCodec ID                                 : 2000\nDuration                                 : 1h 54mn\nSource duration                          : 1h 54mn\nBit rate mode                            : Constant\nBit rate                                 : 448 Kbps\nChannel(s)                               : 6 channels\nChannel positions                        : Front: L C R, Side: L R, LFE\nSampling rate                            : 48.0 KHz\nBit depth                                : 16 bits\nCompression mode                         : Lossy\nStream size                              : 368 MiB (18%)\nAlignment                                : Aligned on interleaves\nInterleave, duration                     : 32 ms (0.80 video frame)","torrent":{"xt":"urn:btih:88f06707694bc2d35eb56262695ae0ce2c604840","amp;dn":"Pitch+Perfect+2+2015+DVD9rip+English+Klam","amp;tr":["udp%3A%2F%2Ftracker.openbittorrent.com%3A80","udp%3A%2F%2Fopen.demonii.com%3A1337","udp%3A%2F%2Ftracker.coppersurfer.tk%3A6969","udp%3A%2F%2Fexodus.desync.com%3A6969"],"infoHash":"88f06707694bc2d35eb56262695ae0ce2c604840","infoHashBuffer":{"type":"Buffer","data":[136,240,103,7,105,75,194,211,94,181,98,98,105,90,224,206,44,96,72,64]},"announce":[],"urlList":[]}}